<svg id="svg" version="1.1" xmlns="http://www.w3.org/2000/svg" xmlns:xlink="http://www.w3.org/1999/xlink" width="400" height="400" viewBox="0, 0, 400,400"><g id="svgg"><path id="path0" d="M180.300 63.425 C 179.673 64.070,179.962 67.200,180.649 67.200 C 181.178 67.200,181.207 67.090,180.804 66.605 C 180.132 65.795,180.615 64.113,181.610 63.797 C 182.601 63.482,184.694 63.905,185.058 64.494 C 185.323 64.923,184.587 64.816,183.131 64.214 C 182.428 63.924,180.800 65.209,180.800 66.054 C 180.800 66.304,181.173 66.034,181.629 65.454 C 182.583 64.242,183.190 64.084,182.995 65.100 C 182.922 65.485,182.847 66.149,182.831 66.576 C 182.801 67.326,182.781 67.327,182.261 66.616 C 181.888 66.105,181.635 66.020,181.437 66.339 C 181.281 66.593,181.275 66.800,181.425 66.800 C 181.575 66.800,181.486 67.055,181.228 67.366 C 180.884 67.781,180.740 73.417,180.690 88.466 L 180.621 109.000 180.405 89.000 L 180.189 69.000 180.094 89.305 L 180.000 109.609 97.600 109.505 C 52.280 109.447,15.200 109.505,15.200 109.633 C 15.200 109.762,14.930 109.867,14.600 109.867 C 14.270 109.867,14.000 109.706,14.000 109.509 C 14.000 109.313,13.357 109.208,12.572 109.276 L 11.144 109.400 11.072 127.700 C 10.994 147.572,10.918 146.913,13.111 145.377 C 13.885 144.835,14.000 144.831,14.000 145.349 C 14.000 145.737,14.383 145.936,15.100 145.922 C 15.705 145.909,53.055 145.922,98.100 145.950 L 180.000 146.000 180.000 198.600 L 180.000 251.200 115.300 251.200 L 50.600 251.200 50.709 235.200 L 50.818 219.200 95.190 219.200 C 128.708 219.200,139.819 219.317,140.610 219.677 C 141.390 220.033,141.729 220.038,141.939 219.698 C 142.123 219.401,142.426 219.372,142.811 219.615 C 144.941 220.963,147.104 219.161,145.400 217.457 C 144.512 216.569,144.524 186.598,145.413 185.424 C 146.495 183.993,146.184 183.063,144.720 183.356 C 144.016 183.497,143.299 183.834,143.126 184.106 C 142.904 184.455,142.810 184.397,142.806 183.909 C 142.799 183.059,16.710 182.792,15.127 183.639 C 14.529 183.959,14.378 183.959,14.575 183.640 C 14.725 183.398,14.657 183.200,14.424 183.200 C 14.191 183.200,14.000 183.483,14.000 183.829 C 14.000 184.400,13.943 184.400,13.371 183.829 C 13.026 183.483,12.351 183.200,11.871 183.200 L 11.000 183.200 11.078 236.644 C 11.120 266.039,11.270 290.204,11.411 290.344 C 11.552 290.485,49.542 290.646,95.833 290.703 L 180.000 290.806 180.094 307.903 L 180.187 325.000 180.406 308.000 L 180.624 291.000 180.612 308.505 C 180.601 323.892,180.673 325.984,181.200 325.804 C 181.530 325.691,181.395 325.943,180.900 326.363 C 179.901 327.213,179.658 329.498,180.480 330.320 C 181.171 331.011,218.829 331.011,219.520 330.320 C 220.342 329.498,220.099 327.213,219.100 326.363 C 218.605 325.943,218.470 325.691,218.800 325.804 C 219.327 325.984,219.399 323.892,219.388 308.505 L 219.376 291.000 219.594 308.000 L 219.813 325.000 219.906 307.901 L 220.000 290.802 302.900 290.701 L 385.800 290.600 385.923 289.737 C 385.994 289.241,385.675 288.529,385.174 288.062 L 384.302 287.249 385.151 287.471 C 385.661 287.605,386.000 287.505,386.000 287.223 C 386.000 286.953,385.787 286.881,385.500 287.053 C 385.101 287.293,385.100 287.229,385.497 286.740 C 386.131 285.956,386.227 183.813,385.593 184.205 C 385.377 184.338,385.200 184.171,385.200 183.833 C 385.200 183.050,256.586 182.858,255.127 183.639 C 254.529 183.959,254.378 183.959,254.575 183.640 C 254.725 183.398,254.657 183.200,254.424 183.200 C 254.191 183.200,254.000 183.483,254.000 183.829 C 254.000 184.400,253.943 184.400,253.371 183.829 C 253.026 183.483,252.351 183.200,251.871 183.200 L 251.000 183.200 251.072 201.500 L 251.144 219.800 252.572 219.924 C 253.396 219.996,254.000 219.867,254.000 219.621 C 254.000 219.341,254.295 219.367,254.852 219.697 C 255.525 220.094,255.742 220.096,255.883 219.707 C 256.024 219.319,266.072 219.211,302.622 219.203 L 349.182 219.194 349.291 235.197 L 349.400 251.200 284.700 251.200 L 220.000 251.200 220.000 198.600 L 220.000 146.000 301.700 145.952 C 346.635 145.925,383.797 145.900,384.281 145.896 C 384.766 145.892,385.126 145.689,385.081 145.444 C 385.037 145.200,385.220 145.043,385.488 145.096 C 385.867 145.171,385.973 141.153,385.961 127.196 C 385.952 117.298,385.813 109.200,385.653 109.200 C 385.492 109.200,385.144 109.416,384.880 109.680 C 384.616 109.944,384.400 109.989,384.400 109.780 C 384.400 109.541,353.922 109.438,302.200 109.504 L 220.000 109.608 219.906 89.304 L 219.811 69.000 219.595 89.000 L 219.379 109.000 219.310 88.466 C 219.269 75.935,219.091 67.751,218.855 67.466 C 218.490 67.026,218.418 66.816,218.387 66.100 C 218.380 65.935,218.110 66.149,217.787 66.576 C 217.206 67.345,217.200 67.345,217.169 66.576 C 217.153 66.149,217.078 65.485,217.005 65.100 C 216.810 64.084,217.417 64.242,218.371 65.454 C 218.827 66.034,219.200 66.304,219.200 66.054 C 219.200 65.209,217.572 63.924,216.869 64.214 C 215.413 64.816,214.677 64.923,214.942 64.494 C 215.306 63.905,217.399 63.482,218.390 63.797 C 219.385 64.113,219.868 65.795,219.196 66.605 C 218.792 67.091,218.825 67.200,219.373 67.200 C 219.924 67.200,220.022 66.860,219.922 65.300 L 219.800 63.400 217.247 63.473 C 215.842 63.514,214.501 63.739,214.267 63.973 C 213.700 64.540,186.328 64.568,185.762 64.002 C 185.256 63.496,180.699 63.014,180.300 63.425 M184.256 65.518 C 184.624 66.108,184.575 66.247,183.979 66.292 C 183.493 66.328,183.273 66.092,183.312 65.573 C 183.385 64.608,183.677 64.592,184.256 65.518 M216.688 65.573 C 216.727 66.092,216.507 66.328,216.021 66.292 C 215.425 66.247,215.376 66.108,215.744 65.518 C 216.323 64.592,216.615 64.608,216.688 65.573 M12.967 109.843 C 13.315 109.976,13.600 110.276,13.600 110.509 C 13.600 110.743,13.482 110.815,13.337 110.670 C 12.935 110.268,11.974 111.228,12.261 111.745 C 12.399 111.995,12.188 111.894,11.791 111.520 C 11.192 110.956,11.157 110.734,11.583 110.220 C 12.173 109.510,12.130 109.521,12.967 109.843 M12.825 144.230 C 13.259 144.753,13.250 144.923,12.774 145.224 C 11.717 145.893,10.919 145.308,11.352 144.181 C 11.642 143.426,12.172 143.444,12.825 144.230 M180.700 224.700 C 180.642 239.165,180.594 227.330,180.594 198.400 C 180.594 169.470,180.642 157.635,180.700 172.100 C 180.758 186.565,180.758 210.235,180.700 224.700 M219.500 224.700 C 219.442 239.165,219.394 227.330,219.394 198.400 C 219.394 169.470,219.442 157.635,219.500 172.100 C 219.558 186.565,219.558 210.235,219.500 224.700 M12.797 183.989 C 13.240 184.270,13.277 184.483,12.942 184.818 C 12.606 185.154,12.411 185.142,12.183 184.773 C 11.973 184.432,12.040 184.378,12.400 184.600 C 12.749 184.816,12.827 184.767,12.634 184.455 C 12.111 183.610,11.574 184.403,12.046 185.324 C 12.468 186.150,12.454 186.162,11.792 185.531 C 10.636 184.428,11.469 183.150,12.797 183.989 M145.411 184.018 C 145.853 184.733,144.786 185.686,144.142 185.152 C 143.725 184.805,143.701 184.561,144.044 184.147 C 144.586 183.493,145.059 183.449,145.411 184.018 M252.797 183.989 C 253.240 184.270,253.277 184.483,252.942 184.818 C 252.606 185.154,252.411 185.142,252.183 184.773 C 251.973 184.432,252.040 184.378,252.400 184.600 C 252.749 184.816,252.827 184.767,252.634 184.455 C 252.111 183.610,251.574 184.403,252.046 185.324 C 252.468 186.150,252.454 186.162,251.792 185.531 C 250.636 184.428,251.469 183.150,252.797 183.989 M144.217 184.372 C 143.944 184.814,144.575 185.292,144.944 184.922 C 145.325 184.542,145.254 184.000,144.824 184.000 C 144.617 184.000,144.344 184.168,144.217 184.372 M252.228 217.555 C 251.930 218.037,252.982 218.865,253.437 218.506 C 253.637 218.348,253.485 218.568,253.100 218.995 C 252.157 220.041,250.686 218.902,251.583 217.820 C 252.135 217.155,252.591 216.968,252.228 217.555 M145.359 218.236 C 145.884 219.605,144.500 220.113,143.549 218.900 C 143.049 218.262,143.063 218.250,143.717 218.763 C 144.284 219.208,144.535 219.223,144.917 218.834 C 145.183 218.564,145.220 218.377,145.000 218.419 C 144.255 218.560,143.952 218.402,144.200 218.000 C 144.565 217.409,145.081 217.514,145.359 218.236 M12.138 285.816 C 12.008 286.155,12.059 286.397,12.251 286.353 C 13.043 286.172,14.085 286.900,13.534 287.250 C 13.114 287.516,13.136 287.589,13.638 287.594 C 14.414 287.601,15.790 289.036,15.307 289.334 C 14.718 289.698,13.872 288.933,14.213 288.345 C 14.386 288.045,14.377 287.938,14.192 288.106 C 14.007 288.274,13.348 287.925,12.728 287.331 C 12.107 286.737,11.600 286.427,11.600 286.644 C 11.600 287.782,14.818 290.181,15.648 289.663 C 16.105 289.378,16.574 289.240,16.691 289.357 C 17.408 290.075,14.692 290.497,13.380 289.871 C 11.479 288.965,10.363 285.200,11.995 285.200 C 12.204 285.200,12.268 285.477,12.138 285.816 M385.359 289.036 C 385.884 290.405,384.500 290.913,383.549 289.700 C 383.049 289.062,383.063 289.050,383.717 289.563 C 384.284 290.008,384.535 290.023,384.917 289.634 C 385.183 289.364,385.220 289.177,385.000 289.219 C 384.255 289.360,383.952 289.202,384.200 288.800 C 384.565 288.209,385.081 288.314,385.359 289.036 M182.400 327.309 C 182.400 327.495,182.580 327.536,182.800 327.400 C 183.020 327.264,183.200 327.354,183.200 327.600 C 183.200 327.846,183.378 327.937,183.595 327.803 C 183.832 327.657,183.885 327.848,183.728 328.279 C 183.491 328.928,183.557 328.920,184.389 328.200 L 185.313 327.400 184.758 328.304 C 183.782 329.892,181.200 329.575,181.200 327.868 C 181.200 327.644,181.695 327.897,182.300 328.430 L 183.400 329.400 182.425 328.295 C 181.775 327.558,181.317 327.323,181.051 327.589 C 180.784 327.856,180.972 328.331,181.615 329.016 C 182.564 330.026,182.892 330.059,185.063 329.369 C 185.743 329.153,185.740 329.183,185.024 329.767 C 183.034 331.389,178.878 328.855,180.639 327.094 C 180.991 326.743,182.400 326.914,182.400 327.309 M219.525 327.875 C 219.808 329.868,216.691 331.165,214.976 329.767 C 214.260 329.183,214.257 329.153,214.937 329.369 C 217.108 330.059,217.436 330.026,218.385 329.016 C 219.028 328.331,219.216 327.856,218.949 327.589 C 218.683 327.323,218.225 327.558,217.575 328.295 L 216.600 329.400 217.700 328.430 C 218.305 327.897,218.800 327.644,218.800 327.868 C 218.800 329.575,216.218 329.892,215.242 328.304 L 214.687 327.400 215.611 328.200 C 216.443 328.920,216.509 328.928,216.272 328.279 C 216.115 327.848,216.168 327.657,216.405 327.803 C 216.622 327.937,216.800 327.846,216.800 327.600 C 216.800 327.354,216.980 327.264,217.200 327.400 C 217.420 327.536,217.600 327.481,217.600 327.278 C 217.600 326.454,219.402 327.013,219.525 327.875 " stroke="none" fill="#1c1c1c" fill-rule="evenodd"></path><path id="path1" d="M182.448 63.591 C 180.534 64.057,179.760 65.600,180.880 66.720 C 181.253 67.093,181.231 67.200,180.780 67.200 C 180.235 67.200,180.063 93.739,180.528 106.200 C 180.594 107.960,180.672 100.083,180.703 88.696 C 180.733 77.308,180.900 67.768,181.073 67.496 C 181.246 67.223,181.413 66.865,181.444 66.700 C 181.475 66.535,181.528 66.265,181.563 66.100 C 181.597 65.935,181.890 66.149,182.213 66.576 C 182.794 67.345,182.800 67.345,182.831 66.576 C 182.847 66.149,182.922 65.485,182.995 65.100 C 183.191 64.075,182.584 64.245,181.567 65.500 C 181.028 66.165,180.779 66.310,180.937 65.867 C 181.082 65.464,181.200 65.066,181.200 64.981 C 181.200 64.416,182.889 64.019,183.622 64.412 C 184.074 64.654,184.659 64.771,184.922 64.672 C 185.185 64.572,184.950 64.302,184.400 64.071 L 183.400 63.651 184.476 63.625 C 185.068 63.611,185.664 63.780,185.800 64.000 C 185.957 64.254,191.130 64.400,200.000 64.400 C 208.870 64.400,214.043 64.254,214.200 64.000 C 214.336 63.780,214.932 63.611,215.524 63.625 L 216.600 63.651 215.600 64.071 C 215.050 64.302,214.815 64.572,215.078 64.672 C 215.341 64.771,215.926 64.654,216.378 64.412 C 217.323 63.906,218.557 64.390,218.953 65.422 C 219.380 66.534,219.227 66.542,218.371 65.454 C 217.417 64.242,216.810 64.084,217.005 65.100 C 217.078 65.485,217.153 66.149,217.169 66.576 C 217.200 67.345,217.206 67.345,217.787 66.576 C 218.110 66.149,218.403 65.935,218.437 66.100 C 218.472 66.265,218.525 66.535,218.556 66.700 C 218.587 66.865,218.754 67.223,218.927 67.496 C 219.100 67.768,219.267 77.308,219.297 88.696 C 219.328 100.083,219.406 107.960,219.472 106.200 C 219.918 94.242,219.765 67.200,219.251 67.200 C 218.811 67.200,218.800 67.082,219.196 66.605 C 219.824 65.848,219.423 64.193,218.503 63.747 C 217.589 63.305,184.219 63.160,182.448 63.591 M183.312 65.573 C 183.273 66.092,183.493 66.328,183.979 66.292 C 184.575 66.247,184.624 66.108,184.256 65.518 C 183.677 64.592,183.385 64.608,183.312 65.573 M215.744 65.518 C 215.376 66.108,215.425 66.247,216.021 66.292 C 216.507 66.328,216.727 66.092,216.688 65.573 C 216.615 64.608,216.323 64.592,215.744 65.518 M57.500 109.500 C 79.995 109.557,116.805 109.557,139.300 109.500 C 161.795 109.443,143.390 109.396,98.400 109.396 C 53.410 109.396,35.005 109.443,57.500 109.500 M260.700 109.500 C 283.195 109.557,320.005 109.557,342.500 109.500 C 364.995 109.443,346.590 109.396,301.600 109.396 C 256.610 109.396,238.205 109.443,260.700 109.500 M11.583 110.220 C 11.157 110.734,11.192 110.956,11.791 111.520 C 12.188 111.894,12.399 111.995,12.261 111.745 C 11.974 111.228,12.935 110.268,13.337 110.670 C 13.482 110.815,13.600 110.743,13.600 110.509 C 13.600 110.276,13.315 109.976,12.967 109.843 C 12.130 109.521,12.173 109.510,11.583 110.220 M10.982 127.600 C 10.982 136.290,11.035 139.845,11.100 135.500 C 11.164 131.155,11.164 124.045,11.100 119.700 C 11.035 115.355,10.982 118.910,10.982 127.600 M11.322 144.258 C 11.168 144.661,11.358 145.126,11.811 145.458 C 12.825 146.199,14.000 146.141,14.000 145.351 C 14.000 144.820,13.891 144.792,13.400 145.200 C 12.923 145.595,12.677 145.596,12.204 145.204 C 11.578 144.684,11.781 143.817,12.434 144.221 C 12.643 144.350,12.709 144.623,12.583 144.828 C 12.456 145.032,12.543 145.200,12.776 145.200 C 13.340 145.200,13.313 144.673,12.720 144.080 C 12.062 143.422,11.622 143.478,11.322 144.258 M385.027 145.170 C 384.365 145.901,384.365 145.934,385.032 145.836 C 385.418 145.780,385.778 145.433,385.831 145.067 C 385.956 144.220,385.878 144.230,385.027 145.170 M180.594 198.400 C 180.594 227.330,180.642 239.165,180.700 224.700 C 180.758 210.235,180.758 186.565,180.700 172.100 C 180.642 157.635,180.594 169.470,180.594 198.400 M219.394 198.400 C 219.394 227.330,219.442 239.165,219.500 224.700 C 219.558 210.235,219.558 186.565,219.500 172.100 C 219.442 157.635,219.394 169.470,219.394 198.400 M142.832 183.900 C 142.850 184.318,142.944 184.399,143.065 184.100 C 143.176 183.825,143.558 183.600,143.913 183.600 C 144.409 183.600,144.450 183.710,144.090 184.070 C 143.391 184.769,144.293 185.787,145.053 185.156 C 145.422 184.850,145.600 184.841,145.600 185.127 C 145.600 185.361,145.420 185.664,145.200 185.800 C 144.480 186.245,144.672 216.729,145.400 217.457 C 145.933 217.990,146.000 216.210,146.000 201.429 C 146.000 185.333,145.974 184.774,145.200 184.000 C 144.195 182.995,142.788 182.936,142.832 183.900 M11.333 184.231 C 11.198 184.583,11.401 185.158,11.792 185.531 C 12.454 186.162,12.468 186.150,12.046 185.324 C 11.574 184.403,12.111 183.610,12.634 184.455 C 12.827 184.767,12.749 184.816,12.400 184.600 C 12.040 184.378,11.973 184.432,12.183 184.773 C 12.411 185.142,12.606 185.154,12.942 184.818 C 13.277 184.483,13.240 184.270,12.797 183.989 C 11.949 183.454,11.610 183.510,11.333 184.231 M251.333 184.231 C 251.198 184.583,251.401 185.158,251.792 185.531 C 252.454 186.162,252.468 186.150,252.046 185.324 C 251.574 184.403,252.111 183.610,252.634 184.455 C 252.827 184.767,252.749 184.816,252.400 184.600 C 252.040 184.378,251.973 184.432,252.183 184.773 C 252.411 185.142,252.606 185.154,252.942 184.818 C 253.277 184.483,253.240 184.270,252.797 183.989 C 251.949 183.454,251.610 183.510,251.333 184.231 M145.200 184.333 C 145.200 184.854,144.724 185.201,144.338 184.961 C 143.924 184.706,144.281 184.000,144.824 184.000 C 145.031 184.000,145.200 184.150,145.200 184.333 M10.994 235.600 C 10.994 262.990,11.042 274.195,11.100 260.500 C 11.158 246.805,11.158 224.395,11.100 210.700 C 11.042 197.005,10.994 208.210,10.994 235.600 M250.982 201.600 C 250.982 210.290,251.035 213.845,251.100 209.500 C 251.164 205.155,251.164 198.045,251.100 193.700 C 251.035 189.355,250.982 192.910,250.982 201.600 M251.583 217.820 C 250.686 218.902,252.157 220.041,253.100 218.995 C 253.485 218.568,253.637 218.348,253.437 218.506 C 252.982 218.865,251.930 218.037,252.228 217.555 C 252.591 216.968,252.135 217.155,251.583 217.820 M144.200 218.000 C 143.952 218.402,144.255 218.560,145.000 218.419 C 145.220 218.377,145.183 218.564,144.917 218.834 C 144.535 219.223,144.284 219.208,143.717 218.763 C 143.063 218.250,143.049 218.262,143.549 218.900 C 144.500 220.113,145.884 219.605,145.359 218.236 C 145.081 217.514,144.565 217.409,144.200 218.000 M50.800 219.600 C 50.800 219.864,66.096 219.998,95.900 219.994 C 125.165 219.990,140.789 219.852,140.400 219.600 C 139.562 219.059,50.800 219.059,50.800 219.600 M256.000 219.607 C 256.000 219.862,272.314 220.000,302.600 220.000 C 333.647 220.000,349.200 219.865,349.200 219.597 C 349.200 219.328,333.653 219.197,302.600 219.203 C 272.321 219.210,256.000 219.351,256.000 219.607 M82.700 251.100 C 100.575 251.158,129.825 251.158,147.700 251.100 C 165.575 251.042,150.950 250.995,115.200 250.995 C 79.450 250.995,64.825 251.042,82.700 251.100 M252.300 251.100 C 270.175 251.158,299.425 251.158,317.300 251.100 C 335.175 251.042,320.550 250.995,284.800 250.995 C 249.050 250.995,234.425 251.042,252.300 251.100 M11.385 286.116 C 10.780 288.529,13.639 291.057,15.841 290.054 C 16.425 289.788,16.808 289.474,16.691 289.357 C 16.574 289.240,16.105 289.378,15.648 289.663 C 14.818 290.181,11.600 287.782,11.600 286.644 C 11.600 286.427,12.107 286.737,12.728 287.331 C 13.348 287.925,14.007 288.274,14.192 288.106 C 14.377 287.938,14.386 288.045,14.213 288.345 C 13.872 288.933,14.718 289.698,15.307 289.334 C 15.790 289.036,14.414 287.601,13.638 287.594 C 13.136 287.589,13.114 287.516,13.534 287.250 C 14.085 286.900,13.043 286.172,12.251 286.353 C 12.059 286.397,12.008 286.155,12.138 285.816 C 12.268 285.477,12.204 285.200,11.995 285.200 C 11.786 285.200,11.512 285.612,11.385 286.116 M384.400 287.349 C 384.400 287.389,384.760 287.730,385.200 288.107 C 385.813 288.632,386.000 288.663,386.000 288.243 C 386.000 287.941,385.640 287.599,385.200 287.484 C 384.760 287.369,384.400 287.308,384.400 287.349 M384.200 288.800 C 383.952 289.202,384.255 289.360,385.000 289.219 C 385.220 289.177,385.183 289.364,384.917 289.634 C 384.535 290.023,384.284 290.008,383.717 289.563 C 383.063 289.050,383.049 289.062,383.549 289.700 C 384.500 290.913,385.884 290.405,385.359 289.036 C 385.081 288.314,384.565 288.209,384.200 288.800 M180.396 308.600 C 180.181 328.327,180.137 327.237,181.110 326.255 C 181.636 325.723,181.657 325.611,181.200 325.783 C 180.673 325.982,180.614 324.463,180.714 313.305 C 180.777 306.317,180.776 298.350,180.711 295.600 C 180.646 292.850,180.504 298.700,180.396 308.600 M219.380 308.305 C 219.398 323.881,219.328 325.982,218.800 325.783 C 218.343 325.611,218.364 325.723,218.890 326.255 C 219.863 327.238,219.821 328.323,219.580 308.600 L 219.360 290.600 219.380 308.305 M180.639 327.094 C 178.878 328.855,183.034 331.389,185.024 329.767 C 185.740 329.183,185.743 329.153,185.063 329.369 C 182.892 330.059,182.564 330.026,181.615 329.016 C 180.972 328.331,180.784 327.856,181.051 327.589 C 181.317 327.323,181.775 327.558,182.425 328.295 L 183.400 329.400 182.300 328.430 C 181.695 327.897,181.200 327.644,181.200 327.868 C 181.200 329.575,183.782 329.892,184.758 328.304 L 185.313 327.400 184.389 328.200 C 183.557 328.920,183.491 328.928,183.728 328.279 C 183.885 327.848,183.832 327.657,183.595 327.803 C 183.378 327.937,183.200 327.846,183.200 327.600 C 183.200 327.354,183.020 327.264,182.800 327.400 C 182.580 327.536,182.400 327.495,182.400 327.309 C 182.400 326.914,180.991 326.743,180.639 327.094 M217.600 327.278 C 217.600 327.481,217.420 327.536,217.200 327.400 C 216.980 327.264,216.800 327.354,216.800 327.600 C 216.800 327.846,216.622 327.937,216.405 327.803 C 216.168 327.657,216.115 327.848,216.272 328.279 C 216.509 328.928,216.443 328.920,215.611 328.200 L 214.687 327.400 215.242 328.304 C 216.218 329.892,218.800 329.575,218.800 327.868 C 218.800 327.644,218.305 327.897,217.700 328.430 L 216.600 329.400 217.575 328.295 C 218.225 327.558,218.683 327.323,218.949 327.589 C 219.216 327.856,219.028 328.331,218.385 329.016 C 217.436 330.026,217.108 330.059,214.937 329.369 C 214.257 329.153,214.260 329.183,214.976 329.767 C 216.691 331.165,219.808 329.868,219.525 327.875 C 219.402 327.013,217.600 326.454,217.600 327.278 " stroke="none" fill="#201c1c" fill-rule="evenodd"></path><path id="path2" d="M182.448 63.591 C 180.534 64.057,179.760 65.600,180.880 66.720 C 181.253 67.093,181.231 67.200,180.780 67.200 C 180.235 67.200,180.063 93.739,180.528 106.200 C 180.594 107.960,180.672 100.083,180.703 88.696 C 180.733 77.308,180.900 67.768,181.073 67.496 C 181.246 67.223,181.413 66.865,181.444 66.700 C 181.475 66.535,181.528 66.265,181.563 66.100 C 181.597 65.935,181.890 66.149,182.213 66.576 C 182.794 67.345,182.800 67.345,182.831 66.576 C 182.847 66.149,182.922 65.485,182.995 65.100 C 183.191 64.075,182.584 64.245,181.567 65.500 C 181.028 66.165,180.779 66.310,180.937 65.867 C 181.082 65.464,181.200 65.066,181.200 64.981 C 181.200 64.416,182.889 64.019,183.622 64.412 C 184.074 64.654,184.659 64.771,184.922 64.672 C 185.185 64.572,184.950 64.302,184.400 64.071 L 183.400 63.651 184.476 63.625 C 185.068 63.611,185.664 63.780,185.800 64.000 C 185.957 64.254,191.130 64.400,200.000 64.400 C 208.870 64.400,214.043 64.254,214.200 64.000 C 214.336 63.780,214.932 63.611,215.524 63.625 L 216.600 63.651 215.600 64.071 C 215.050 64.302,214.815 64.572,215.078 64.672 C 215.341 64.771,215.926 64.654,216.378 64.412 C 217.323 63.906,218.557 64.390,218.953 65.422 C 219.380 66.534,219.227 66.542,218.371 65.454 C 217.417 64.242,216.810 64.084,217.005 65.100 C 217.078 65.485,217.153 66.149,217.169 66.576 C 217.200 67.345,217.206 67.345,217.787 66.576 C 218.110 66.149,218.403 65.935,218.437 66.100 C 218.472 66.265,218.525 66.535,218.556 66.700 C 218.587 66.865,218.754 67.223,218.927 67.496 C 219.100 67.768,219.267 77.308,219.297 88.696 C 219.328 100.083,219.406 107.960,219.472 106.200 C 219.918 94.242,219.765 67.200,219.251 67.200 C 218.811 67.200,218.800 67.082,219.196 66.605 C 219.824 65.848,219.423 64.193,218.503 63.747 C 217.589 63.305,184.219 63.160,182.448 63.591 M183.312 65.573 C 183.273 66.092,183.493 66.328,183.979 66.292 C 184.575 66.247,184.624 66.108,184.256 65.518 C 183.677 64.592,183.385 64.608,183.312 65.573 M215.744 65.518 C 215.376 66.108,215.425 66.247,216.021 66.292 C 216.507 66.328,216.727 66.092,216.688 65.573 C 216.615 64.608,216.323 64.592,215.744 65.518 M57.500 109.500 C 79.995 109.557,116.805 109.557,139.300 109.500 C 161.795 109.443,143.390 109.396,98.400 109.396 C 53.410 109.396,35.005 109.443,57.500 109.500 M260.700 109.500 C 283.195 109.557,320.005 109.557,342.500 109.500 C 364.995 109.443,346.590 109.396,301.600 109.396 C 256.610 109.396,238.205 109.443,260.700 109.500 M11.583 110.220 C 11.157 110.734,11.192 110.956,11.791 111.520 C 12.188 111.894,12.399 111.995,12.261 111.745 C 11.974 111.228,12.935 110.268,13.337 110.670 C 13.482 110.815,13.600 110.743,13.600 110.509 C 13.600 110.276,13.315 109.976,12.967 109.843 C 12.130 109.521,12.173 109.510,11.583 110.220 M10.982 127.600 C 10.982 136.290,11.035 139.845,11.100 135.500 C 11.164 131.155,11.164 124.045,11.100 119.700 C 11.035 115.355,10.982 118.910,10.982 127.600 M11.322 144.258 C 11.168 144.661,11.358 145.126,11.811 145.458 C 12.825 146.199,14.000 146.141,14.000 145.351 C 14.000 144.820,13.891 144.792,13.400 145.200 C 12.923 145.595,12.677 145.596,12.204 145.204 C 11.578 144.684,11.781 143.817,12.434 144.221 C 12.643 144.350,12.709 144.623,12.583 144.828 C 12.456 145.032,12.543 145.200,12.776 145.200 C 13.340 145.200,13.313 144.673,12.720 144.080 C 12.062 143.422,11.622 143.478,11.322 144.258 M385.027 145.170 C 384.365 145.901,384.365 145.934,385.032 145.836 C 385.418 145.780,385.778 145.433,385.831 145.067 C 385.956 144.220,385.878 144.230,385.027 145.170 M180.594 198.400 C 180.594 227.330,180.642 239.165,180.700 224.700 C 180.758 210.235,180.758 186.565,180.700 172.100 C 180.642 157.635,180.594 169.470,180.594 198.400 M219.394 198.400 C 219.394 227.330,219.442 239.165,219.500 224.700 C 219.558 210.235,219.558 186.565,219.500 172.100 C 219.442 157.635,219.394 169.470,219.394 198.400 M142.832 183.900 C 142.850 184.318,142.944 184.399,143.065 184.100 C 143.176 183.825,143.558 183.600,143.913 183.600 C 144.409 183.600,144.450 183.710,144.090 184.070 C 143.391 184.769,144.293 185.787,145.053 185.156 C 145.422 184.850,145.600 184.841,145.600 185.127 C 145.600 185.361,145.420 185.664,145.200 185.800 C 144.480 186.245,144.672 216.729,145.400 217.457 C 145.933 217.990,146.000 216.210,146.000 201.429 C 146.000 185.333,145.974 184.774,145.200 184.000 C 144.195 182.995,142.788 182.936,142.832 183.900 M11.333 184.231 C 11.198 184.583,11.401 185.158,11.792 185.531 C 12.454 186.162,12.468 186.150,12.046 185.324 C 11.574 184.403,12.111 183.610,12.634 184.455 C 12.827 184.767,12.749 184.816,12.400 184.600 C 12.040 184.378,11.973 184.432,12.183 184.773 C 12.411 185.142,12.606 185.154,12.942 184.818 C 13.277 184.483,13.240 184.270,12.797 183.989 C 11.949 183.454,11.610 183.510,11.333 184.231 M251.333 184.231 C 251.198 184.583,251.401 185.158,251.792 185.531 C 252.454 186.162,252.468 186.150,252.046 185.324 C 251.574 184.403,252.111 183.610,252.634 184.455 C 252.827 184.767,252.749 184.816,252.400 184.600 C 252.040 184.378,251.973 184.432,252.183 184.773 C 252.411 185.142,252.606 185.154,252.942 184.818 C 253.277 184.483,253.240 184.270,252.797 183.989 C 251.949 183.454,251.610 183.510,251.333 184.231 M145.200 184.333 C 145.200 184.854,144.724 185.201,144.338 184.961 C 143.924 184.706,144.281 184.000,144.824 184.000 C 145.031 184.000,145.200 184.150,145.200 184.333 M10.994 235.600 C 10.994 262.990,11.042 274.195,11.100 260.500 C 11.158 246.805,11.158 224.395,11.100 210.700 C 11.042 197.005,10.994 208.210,10.994 235.600 M250.982 201.600 C 250.982 210.290,251.035 213.845,251.100 209.500 C 251.164 205.155,251.164 198.045,251.100 193.700 C 251.035 189.355,250.982 192.910,250.982 201.600 M251.583 217.820 C 250.686 218.902,252.157 220.041,253.100 218.995 C 253.485 218.568,253.637 218.348,253.437 218.506 C 252.982 218.865,251.930 218.037,252.228 217.555 C 252.591 216.968,252.135 217.155,251.583 217.820 M144.200 218.000 C 143.952 218.402,144.255 218.560,145.000 218.419 C 145.220 218.377,145.183 218.564,144.917 218.834 C 144.535 219.223,144.284 219.208,143.717 218.763 C 143.063 218.250,143.049 218.262,143.549 218.900 C 144.500 220.113,145.884 219.605,145.359 218.236 C 145.081 217.514,144.565 217.409,144.200 218.000 M50.800 219.600 C 50.800 219.864,66.096 219.998,95.900 219.994 C 125.165 219.990,140.789 219.852,140.400 219.600 C 139.562 219.059,50.800 219.059,50.800 219.600 M256.000 219.607 C 256.000 219.862,272.314 220.000,302.600 220.000 C 333.647 220.000,349.200 219.865,349.200 219.597 C 349.200 219.328,333.653 219.197,302.600 219.203 C 272.321 219.210,256.000 219.351,256.000 219.607 M82.700 251.100 C 100.575 251.158,129.825 251.158,147.700 251.100 C 165.575 251.042,150.950 250.995,115.200 250.995 C 79.450 250.995,64.825 251.042,82.700 251.100 M252.300 251.100 C 270.175 251.158,299.425 251.158,317.300 251.100 C 335.175 251.042,320.550 250.995,284.800 250.995 C 249.050 250.995,234.425 251.042,252.300 251.100 M11.385 286.116 C 10.780 288.529,13.639 291.057,15.841 290.054 C 16.425 289.788,16.808 289.474,16.691 289.357 C 16.574 289.240,16.105 289.378,15.648 289.663 C 14.818 290.181,11.600 287.782,11.600 286.644 C 11.600 286.427,12.107 286.737,12.728 287.331 C 13.348 287.925,14.007 288.274,14.192 288.106 C 14.377 287.938,14.386 288.045,14.213 288.345 C 13.872 288.933,14.718 289.698,15.307 289.334 C 15.790 289.036,14.414 287.601,13.638 287.594 C 13.136 287.589,13.114 287.516,13.534 287.250 C 14.085 286.900,13.043 286.172,12.251 286.353 C 12.059 286.397,12.008 286.155,12.138 285.816 C 12.268 285.477,12.204 285.200,11.995 285.200 C 11.786 285.200,11.512 285.612,11.385 286.116 M384.400 287.349 C 384.400 287.389,384.760 287.730,385.200 288.107 C 385.813 288.632,386.000 288.663,386.000 288.243 C 386.000 287.941,385.640 287.599,385.200 287.484 C 384.760 287.369,384.400 287.308,384.400 287.349 M384.200 288.800 C 383.952 289.202,384.255 289.360,385.000 289.219 C 385.220 289.177,385.183 289.364,384.917 289.634 C 384.535 290.023,384.284 290.008,383.717 289.563 C 383.063 289.050,383.049 289.062,383.549 289.700 C 384.500 290.913,385.884 290.405,385.359 289.036 C 385.081 288.314,384.565 288.209,384.200 288.800 M180.396 308.600 C 180.181 328.327,180.137 327.237,181.110 326.255 C 181.636 325.723,181.657 325.611,181.200 325.783 C 180.673 325.982,180.614 324.463,180.714 313.305 C 180.777 306.317,180.776 298.350,180.711 295.600 C 180.646 292.850,180.504 298.700,180.396 308.600 M219.380 308.305 C 219.398 323.881,219.328 325.982,218.800 325.783 C 218.343 325.611,218.364 325.723,218.890 326.255 C 219.863 327.238,219.821 328.323,219.580 308.600 L 219.360 290.600 219.380 308.305 M180.639 327.094 C 178.878 328.855,183.034 331.389,185.024 329.767 C 185.740 329.183,185.743 329.153,185.063 329.369 C 182.892 330.059,182.564 330.026,181.615 329.016 C 180.972 328.331,180.784 327.856,181.051 327.589 C 181.317 327.323,181.775 327.558,182.425 328.295 L 183.400 329.400 182.300 328.430 C 181.695 327.897,181.200 327.644,181.200 327.868 C 181.200 329.575,183.782 329.892,184.758 328.304 L 185.313 327.400 184.389 328.200 C 183.557 328.920,183.491 328.928,183.728 328.279 C 183.885 327.848,183.832 327.657,183.595 327.803 C 183.378 327.937,183.200 327.846,183.200 327.600 C 183.200 327.354,183.020 327.264,182.800 327.400 C 182.580 327.536,182.400 327.495,182.400 327.309 C 182.400 326.914,180.991 326.743,180.639 327.094 M217.600 327.278 C 217.600 327.481,217.420 327.536,217.200 327.400 C 216.980 327.264,216.800 327.354,216.800 327.600 C 216.800 327.846,216.622 327.937,216.405 327.803 C 216.168 327.657,216.115 327.848,216.272 328.279 C 216.509 328.928,216.443 328.920,215.611 328.200 L 214.687 327.400 215.242 328.304 C 216.218 329.892,218.800 329.575,218.800 327.868 C 218.800 327.644,218.305 327.897,217.700 328.430 L 216.600 329.400 217.575 328.295 C 218.225 327.558,218.683 327.323,218.949 327.589 C 219.216 327.856,219.028 328.331,218.385 329.016 C 217.436 330.026,217.108 330.059,214.937 329.369 C 214.257 329.153,214.260 329.183,214.976 329.767 C 216.691 331.165,219.808 329.868,219.525 327.875 C 219.402 327.013,217.600 326.454,217.600 327.278 " stroke="none" fill="#201c1c" fill-rule="evenodd"></path><path id="path3" d="M182.448 63.591 C 180.534 64.057,179.760 65.600,180.880 66.720 C 181.253 67.093,181.231 67.200,180.780 67.200 C 180.235 67.200,180.063 93.739,180.528 106.200 C 180.594 107.960,180.672 100.083,180.703 88.696 C 180.733 77.308,180.900 67.768,181.073 67.496 C 181.246 67.223,181.413 66.865,181.444 66.700 C 181.475 66.535,181.528 66.265,181.563 66.100 C 181.597 65.935,181.890 66.149,182.213 66.576 C 182.794 67.345,182.800 67.345,182.831 66.576 C 182.847 66.149,182.922 65.485,182.995 65.100 C 183.191 64.075,182.584 64.245,181.567 65.500 C 181.028 66.165,180.779 66.310,180.937 65.867 C 181.082 65.464,181.200 65.066,181.200 64.981 C 181.200 64.416,182.889 64.019,183.622 64.412 C 184.074 64.654,184.659 64.771,184.922 64.672 C 185.185 64.572,184.950 64.302,184.400 64.071 L 183.400 63.651 184.476 63.625 C 185.068 63.611,185.664 63.780,185.800 64.000 C 185.957 64.254,191.130 64.400,200.000 64.400 C 208.870 64.400,214.043 64.254,214.200 64.000 C 214.336 63.780,214.932 63.611,215.524 63.625 L 216.600 63.651 215.600 64.071 C 215.050 64.302,214.815 64.572,215.078 64.672 C 215.341 64.771,215.926 64.654,216.378 64.412 C 217.323 63.906,218.557 64.390,218.953 65.422 C 219.380 66.534,219.227 66.542,218.371 65.454 C 217.417 64.242,216.810 64.084,217.005 65.100 C 217.078 65.485,217.153 66.149,217.169 66.576 C 217.200 67.345,217.206 67.345,217.787 66.576 C 218.110 66.149,218.403 65.935,218.437 66.100 C 218.472 66.265,218.525 66.535,218.556 66.700 C 218.587 66.865,218.754 67.223,218.927 67.496 C 219.100 67.768,219.267 77.308,219.297 88.696 C 219.328 100.083,219.406 107.960,219.472 106.200 C 219.918 94.242,219.765 67.200,219.251 67.200 C 218.811 67.200,218.800 67.082,219.196 66.605 C 219.824 65.848,219.423 64.193,218.503 63.747 C 217.589 63.305,184.219 63.160,182.448 63.591 M183.312 65.573 C 183.273 66.092,183.493 66.328,183.979 66.292 C 184.575 66.247,184.624 66.108,184.256 65.518 C 183.677 64.592,183.385 64.608,183.312 65.573 M215.744 65.518 C 215.376 66.108,215.425 66.247,216.021 66.292 C 216.507 66.328,216.727 66.092,216.688 65.573 C 216.615 64.608,216.323 64.592,215.744 65.518 M57.500 109.500 C 79.995 109.557,116.805 109.557,139.300 109.500 C 161.795 109.443,143.390 109.396,98.400 109.396 C 53.410 109.396,35.005 109.443,57.500 109.500 M260.700 109.500 C 283.195 109.557,320.005 109.557,342.500 109.500 C 364.995 109.443,346.590 109.396,301.600 109.396 C 256.610 109.396,238.205 109.443,260.700 109.500 M11.583 110.220 C 11.157 110.734,11.192 110.956,11.791 111.520 C 12.188 111.894,12.399 111.995,12.261 111.745 C 11.974 111.228,12.935 110.268,13.337 110.670 C 13.482 110.815,13.600 110.743,13.600 110.509 C 13.600 110.276,13.315 109.976,12.967 109.843 C 12.130 109.521,12.173 109.510,11.583 110.220 M10.982 127.600 C 10.982 136.290,11.035 139.845,11.100 135.500 C 11.164 131.155,11.164 124.045,11.100 119.700 C 11.035 115.355,10.982 118.910,10.982 127.600 M11.322 144.258 C 11.168 144.661,11.358 145.126,11.811 145.458 C 12.825 146.199,14.000 146.141,14.000 145.351 C 14.000 144.820,13.891 144.792,13.400 145.200 C 12.923 145.595,12.677 145.596,12.204 145.204 C 11.578 144.684,11.781 143.817,12.434 144.221 C 12.643 144.350,12.709 144.623,12.583 144.828 C 12.456 145.032,12.543 145.200,12.776 145.200 C 13.340 145.200,13.313 144.673,12.720 144.080 C 12.062 143.422,11.622 143.478,11.322 144.258 M385.027 145.170 C 384.365 145.901,384.365 145.934,385.032 145.836 C 385.418 145.780,385.778 145.433,385.831 145.067 C 385.956 144.220,385.878 144.230,385.027 145.170 M180.594 198.400 C 180.594 227.330,180.642 239.165,180.700 224.700 C 180.758 210.235,180.758 186.565,180.700 172.100 C 180.642 157.635,180.594 169.470,180.594 198.400 M219.394 198.400 C 219.394 227.330,219.442 239.165,219.500 224.700 C 219.558 210.235,219.558 186.565,219.500 172.100 C 219.442 157.635,219.394 169.470,219.394 198.400 M142.832 183.900 C 142.850 184.318,142.944 184.399,143.065 184.100 C 143.176 183.825,143.558 183.600,143.913 183.600 C 144.409 183.600,144.450 183.710,144.090 184.070 C 143.391 184.769,144.293 185.787,145.053 185.156 C 145.422 184.850,145.600 184.841,145.600 185.127 C 145.600 185.361,145.420 185.664,145.200 185.800 C 144.480 186.245,144.672 216.729,145.400 217.457 C 145.933 217.990,146.000 216.210,146.000 201.429 C 146.000 185.333,145.974 184.774,145.200 184.000 C 144.195 182.995,142.788 182.936,142.832 183.900 M11.333 184.231 C 11.198 184.583,11.401 185.158,11.792 185.531 C 12.454 186.162,12.468 186.150,12.046 185.324 C 11.574 184.403,12.111 183.610,12.634 184.455 C 12.827 184.767,12.749 184.816,12.400 184.600 C 12.040 184.378,11.973 184.432,12.183 184.773 C 12.411 185.142,12.606 185.154,12.942 184.818 C 13.277 184.483,13.240 184.270,12.797 183.989 C 11.949 183.454,11.610 183.510,11.333 184.231 M251.333 184.231 C 251.198 184.583,251.401 185.158,251.792 185.531 C 252.454 186.162,252.468 186.150,252.046 185.324 C 251.574 184.403,252.111 183.610,252.634 184.455 C 252.827 184.767,252.749 184.816,252.400 184.600 C 252.040 184.378,251.973 184.432,252.183 184.773 C 252.411 185.142,252.606 185.154,252.942 184.818 C 253.277 184.483,253.240 184.270,252.797 183.989 C 251.949 183.454,251.610 183.510,251.333 184.231 M145.200 184.333 C 145.200 184.854,144.724 185.201,144.338 184.961 C 143.924 184.706,144.281 184.000,144.824 184.000 C 145.031 184.000,145.200 184.150,145.200 184.333 M10.994 235.600 C 10.994 262.990,11.042 274.195,11.100 260.500 C 11.158 246.805,11.158 224.395,11.100 210.700 C 11.042 197.005,10.994 208.210,10.994 235.600 M250.982 201.600 C 250.982 210.290,251.035 213.845,251.100 209.500 C 251.164 205.155,251.164 198.045,251.100 193.700 C 251.035 189.355,250.982 192.910,250.982 201.600 M251.583 217.820 C 250.686 218.902,252.157 220.041,253.100 218.995 C 253.485 218.568,253.637 218.348,253.437 218.506 C 252.982 218.865,251.930 218.037,252.228 217.555 C 252.591 216.968,252.135 217.155,251.583 217.820 M144.200 218.000 C 143.952 218.402,144.255 218.560,145.000 218.419 C 145.220 218.377,145.183 218.564,144.917 218.834 C 144.535 219.223,144.284 219.208,143.717 218.763 C 143.063 218.250,143.049 218.262,143.549 218.900 C 144.500 220.113,145.884 219.605,145.359 218.236 C 145.081 217.514,144.565 217.409,144.200 218.000 M50.800 219.600 C 50.800 219.864,66.096 219.998,95.900 219.994 C 125.165 219.990,140.789 219.852,140.400 219.600 C 139.562 219.059,50.800 219.059,50.800 219.600 M256.000 219.607 C 256.000 219.862,272.314 220.000,302.600 220.000 C 333.647 220.000,349.200 219.865,349.200 219.597 C 349.200 219.328,333.653 219.197,302.600 219.203 C 272.321 219.210,256.000 219.351,256.000 219.607 M82.700 251.100 C 100.575 251.158,129.825 251.158,147.700 251.100 C 165.575 251.042,150.950 250.995,115.200 250.995 C 79.450 250.995,64.825 251.042,82.700 251.100 M252.300 251.100 C 270.175 251.158,299.425 251.158,317.300 251.100 C 335.175 251.042,320.550 250.995,284.800 250.995 C 249.050 250.995,234.425 251.042,252.300 251.100 M11.385 286.116 C 10.780 288.529,13.639 291.057,15.841 290.054 C 16.425 289.788,16.808 289.474,16.691 289.357 C 16.574 289.240,16.105 289.378,15.648 289.663 C 14.818 290.181,11.600 287.782,11.600 286.644 C 11.600 286.427,12.107 286.737,12.728 287.331 C 13.348 287.925,14.007 288.274,14.192 288.106 C 14.377 287.938,14.386 288.045,14.213 288.345 C 13.872 288.933,14.718 289.698,15.307 289.334 C 15.790 289.036,14.414 287.601,13.638 287.594 C 13.136 287.589,13.114 287.516,13.534 287.250 C 14.085 286.900,13.043 286.172,12.251 286.353 C 12.059 286.397,12.008 286.155,12.138 285.816 C 12.268 285.477,12.204 285.200,11.995 285.200 C 11.786 285.200,11.512 285.612,11.385 286.116 M384.400 287.349 C 384.400 287.389,384.760 287.730,385.200 288.107 C 385.813 288.632,386.000 288.663,386.000 288.243 C 386.000 287.941,385.640 287.599,385.200 287.484 C 384.760 287.369,384.400 287.308,384.400 287.349 M384.200 288.800 C 383.952 289.202,384.255 289.360,385.000 289.219 C 385.220 289.177,385.183 289.364,384.917 289.634 C 384.535 290.023,384.284 290.008,383.717 289.563 C 383.063 289.050,383.049 289.062,383.549 289.700 C 384.500 290.913,385.884 290.405,385.359 289.036 C 385.081 288.314,384.565 288.209,384.200 288.800 M180.396 308.600 C 180.181 328.327,180.137 327.237,181.110 326.255 C 181.636 325.723,181.657 325.611,181.200 325.783 C 180.673 325.982,180.614 324.463,180.714 313.305 C 180.777 306.317,180.776 298.350,180.711 295.600 C 180.646 292.850,180.504 298.700,180.396 308.600 M219.380 308.305 C 219.398 323.881,219.328 325.982,218.800 325.783 C 218.343 325.611,218.364 325.723,218.890 326.255 C 219.863 327.238,219.821 328.323,219.580 308.600 L 219.360 290.600 219.380 308.305 M180.639 327.094 C 178.878 328.855,183.034 331.389,185.024 329.767 C 185.740 329.183,185.743 329.153,185.063 329.369 C 182.892 330.059,182.564 330.026,181.615 329.016 C 180.972 328.331,180.784 327.856,181.051 327.589 C 181.317 327.323,181.775 327.558,182.425 328.295 L 183.400 329.400 182.300 328.430 C 181.695 327.897,181.200 327.644,181.200 327.868 C 181.200 329.575,183.782 329.892,184.758 328.304 L 185.313 327.400 184.389 328.200 C 183.557 328.920,183.491 328.928,183.728 328.279 C 183.885 327.848,183.832 327.657,183.595 327.803 C 183.378 327.937,183.200 327.846,183.200 327.600 C 183.200 327.354,183.020 327.264,182.800 327.400 C 182.580 327.536,182.400 327.495,182.400 327.309 C 182.400 326.914,180.991 326.743,180.639 327.094 M217.600 327.278 C 217.600 327.481,217.420 327.536,217.200 327.400 C 216.980 327.264,216.800 327.354,216.800 327.600 C 216.800 327.846,216.622 327.937,216.405 327.803 C 216.168 327.657,216.115 327.848,216.272 328.279 C 216.509 328.928,216.443 328.920,215.611 328.200 L 214.687 327.400 215.242 328.304 C 216.218 329.892,218.800 329.575,218.800 327.868 C 218.800 327.644,218.305 327.897,217.700 328.430 L 216.600 329.400 217.575 328.295 C 218.225 327.558,218.683 327.323,218.949 327.589 C 219.216 327.856,219.028 328.331,218.385 329.016 C 217.436 330.026,217.108 330.059,214.937 329.369 C 214.257 329.153,214.260 329.183,214.976 329.767 C 216.691 331.165,219.808 329.868,219.525 327.875 C 219.402 327.013,217.600 326.454,217.600 327.278 " stroke="none" fill="#201c1c" fill-rule="evenodd"></path><path id="path4" d="M182.448 63.591 C 180.534 64.057,179.760 65.600,180.880 66.720 C 181.253 67.093,181.231 67.200,180.780 67.200 C 180.235 67.200,180.063 93.739,180.528 106.200 C 180.594 107.960,180.672 100.083,180.703 88.696 C 180.733 77.308,180.900 67.768,181.073 67.496 C 181.246 67.223,181.413 66.865,181.444 66.700 C 181.475 66.535,181.528 66.265,181.563 66.100 C 181.597 65.935,181.890 66.149,182.213 66.576 C 182.794 67.345,182.800 67.345,182.831 66.576 C 182.847 66.149,182.922 65.485,182.995 65.100 C 183.191 64.075,182.584 64.245,181.567 65.500 C 181.028 66.165,180.779 66.310,180.937 65.867 C 181.082 65.464,181.200 65.066,181.200 64.981 C 181.200 64.416,182.889 64.019,183.622 64.412 C 184.074 64.654,184.659 64.771,184.922 64.672 C 185.185 64.572,184.950 64.302,184.400 64.071 L 183.400 63.651 184.476 63.625 C 185.068 63.611,185.664 63.780,185.800 64.000 C 185.957 64.254,191.130 64.400,200.000 64.400 C 208.870 64.400,214.043 64.254,214.200 64.000 C 214.336 63.780,214.932 63.611,215.524 63.625 L 216.600 63.651 215.600 64.071 C 215.050 64.302,214.815 64.572,215.078 64.672 C 215.341 64.771,215.926 64.654,216.378 64.412 C 217.323 63.906,218.557 64.390,218.953 65.422 C 219.380 66.534,219.227 66.542,218.371 65.454 C 217.417 64.242,216.810 64.084,217.005 65.100 C 217.078 65.485,217.153 66.149,217.169 66.576 C 217.200 67.345,217.206 67.345,217.787 66.576 C 218.110 66.149,218.403 65.935,218.437 66.100 C 218.472 66.265,218.525 66.535,218.556 66.700 C 218.587 66.865,218.754 67.223,218.927 67.496 C 219.100 67.768,219.267 77.308,219.297 88.696 C 219.328 100.083,219.406 107.960,219.472 106.200 C 219.918 94.242,219.765 67.200,219.251 67.200 C 218.811 67.200,218.800 67.082,219.196 66.605 C 219.824 65.848,219.423 64.193,218.503 63.747 C 217.589 63.305,184.219 63.160,182.448 63.591 M183.312 65.573 C 183.273 66.092,183.493 66.328,183.979 66.292 C 184.575 66.247,184.624 66.108,184.256 65.518 C 183.677 64.592,183.385 64.608,183.312 65.573 M215.744 65.518 C 215.376 66.108,215.425 66.247,216.021 66.292 C 216.507 66.328,216.727 66.092,216.688 65.573 C 216.615 64.608,216.323 64.592,215.744 65.518 M57.500 109.500 C 79.995 109.557,116.805 109.557,139.300 109.500 C 161.795 109.443,143.390 109.396,98.400 109.396 C 53.410 109.396,35.005 109.443,57.500 109.500 M260.700 109.500 C 283.195 109.557,320.005 109.557,342.500 109.500 C 364.995 109.443,346.590 109.396,301.600 109.396 C 256.610 109.396,238.205 109.443,260.700 109.500 M11.583 110.220 C 11.157 110.734,11.192 110.956,11.791 111.520 C 12.188 111.894,12.399 111.995,12.261 111.745 C 11.974 111.228,12.935 110.268,13.337 110.670 C 13.482 110.815,13.600 110.743,13.600 110.509 C 13.600 110.276,13.315 109.976,12.967 109.843 C 12.130 109.521,12.173 109.510,11.583 110.220 M10.982 127.600 C 10.982 136.290,11.035 139.845,11.100 135.500 C 11.164 131.155,11.164 124.045,11.100 119.700 C 11.035 115.355,10.982 118.910,10.982 127.600 M11.322 144.258 C 11.168 144.661,11.358 145.126,11.811 145.458 C 12.825 146.199,14.000 146.141,14.000 145.351 C 14.000 144.820,13.891 144.792,13.400 145.200 C 12.923 145.595,12.677 145.596,12.204 145.204 C 11.578 144.684,11.781 143.817,12.434 144.221 C 12.643 144.350,12.709 144.623,12.583 144.828 C 12.456 145.032,12.543 145.200,12.776 145.200 C 13.340 145.200,13.313 144.673,12.720 144.080 C 12.062 143.422,11.622 143.478,11.322 144.258 M385.027 145.170 C 384.365 145.901,384.365 145.934,385.032 145.836 C 385.418 145.780,385.778 145.433,385.831 145.067 C 385.956 144.220,385.878 144.230,385.027 145.170 M180.594 198.400 C 180.594 227.330,180.642 239.165,180.700 224.700 C 180.758 210.235,180.758 186.565,180.700 172.100 C 180.642 157.635,180.594 169.470,180.594 198.400 M219.394 198.400 C 219.394 227.330,219.442 239.165,219.500 224.700 C 219.558 210.235,219.558 186.565,219.500 172.100 C 219.442 157.635,219.394 169.470,219.394 198.400 M142.832 183.900 C 142.850 184.318,142.944 184.399,143.065 184.100 C 143.176 183.825,143.558 183.600,143.913 183.600 C 144.409 183.600,144.450 183.710,144.090 184.070 C 143.391 184.769,144.293 185.787,145.053 185.156 C 145.422 184.850,145.600 184.841,145.600 185.127 C 145.600 185.361,145.420 185.664,145.200 185.800 C 144.480 186.245,144.672 216.729,145.400 217.457 C 145.933 217.990,146.000 216.210,146.000 201.429 C 146.000 185.333,145.974 184.774,145.200 184.000 C 144.195 182.995,142.788 182.936,142.832 183.900 M11.333 184.231 C 11.198 184.583,11.401 185.158,11.792 185.531 C 12.454 186.162,12.468 186.150,12.046 185.324 C 11.574 184.403,12.111 183.610,12.634 184.455 C 12.827 184.767,12.749 184.816,12.400 184.600 C 12.040 184.378,11.973 184.432,12.183 184.773 C 12.411 185.142,12.606 185.154,12.942 184.818 C 13.277 184.483,13.240 184.270,12.797 183.989 C 11.949 183.454,11.610 183.510,11.333 184.231 M251.333 184.231 C 251.198 184.583,251.401 185.158,251.792 185.531 C 252.454 186.162,252.468 186.150,252.046 185.324 C 251.574 184.403,252.111 183.610,252.634 184.455 C 252.827 184.767,252.749 184.816,252.400 184.600 C 252.040 184.378,251.973 184.432,252.183 184.773 C 252.411 185.142,252.606 185.154,252.942 184.818 C 253.277 184.483,253.240 184.270,252.797 183.989 C 251.949 183.454,251.610 183.510,251.333 184.231 M145.200 184.333 C 145.200 184.854,144.724 185.201,144.338 184.961 C 143.924 184.706,144.281 184.000,144.824 184.000 C 145.031 184.000,145.200 184.150,145.200 184.333 M10.994 235.600 C 10.994 262.990,11.042 274.195,11.100 260.500 C 11.158 246.805,11.158 224.395,11.100 210.700 C 11.042 197.005,10.994 208.210,10.994 235.600 M250.982 201.600 C 250.982 210.290,251.035 213.845,251.100 209.500 C 251.164 205.155,251.164 198.045,251.100 193.700 C 251.035 189.355,250.982 192.910,250.982 201.600 M251.583 217.820 C 250.686 218.902,252.157 220.041,253.100 218.995 C 253.485 218.568,253.637 218.348,253.437 218.506 C 252.982 218.865,251.930 218.037,252.228 217.555 C 252.591 216.968,252.135 217.155,251.583 217.820 M144.200 218.000 C 143.952 218.402,144.255 218.560,145.000 218.419 C 145.220 218.377,145.183 218.564,144.917 218.834 C 144.535 219.223,144.284 219.208,143.717 218.763 C 143.063 218.250,143.049 218.262,143.549 218.900 C 144.500 220.113,145.884 219.605,145.359 218.236 C 145.081 217.514,144.565 217.409,144.200 218.000 M50.800 219.600 C 50.800 219.864,66.096 219.998,95.900 219.994 C 125.165 219.990,140.789 219.852,140.400 219.600 C 139.562 219.059,50.800 219.059,50.800 219.600 M256.000 219.607 C 256.000 219.862,272.314 220.000,302.600 220.000 C 333.647 220.000,349.200 219.865,349.200 219.597 C 349.200 219.328,333.653 219.197,302.600 219.203 C 272.321 219.210,256.000 219.351,256.000 219.607 M82.700 251.100 C 100.575 251.158,129.825 251.158,147.700 251.100 C 165.575 251.042,150.950 250.995,115.200 250.995 C 79.450 250.995,64.825 251.042,82.700 251.100 M252.300 251.100 C 270.175 251.158,299.425 251.158,317.300 251.100 C 335.175 251.042,320.550 250.995,284.800 250.995 C 249.050 250.995,234.425 251.042,252.300 251.100 M11.385 286.116 C 10.780 288.529,13.639 291.057,15.841 290.054 C 16.425 289.788,16.808 289.474,16.691 289.357 C 16.574 289.240,16.105 289.378,15.648 289.663 C 14.818 290.181,11.600 287.782,11.600 286.644 C 11.600 286.427,12.107 286.737,12.728 287.331 C 13.348 287.925,14.007 288.274,14.192 288.106 C 14.377 287.938,14.386 288.045,14.213 288.345 C 13.872 288.933,14.718 289.698,15.307 289.334 C 15.790 289.036,14.414 287.601,13.638 287.594 C 13.136 287.589,13.114 287.516,13.534 287.250 C 14.085 286.900,13.043 286.172,12.251 286.353 C 12.059 286.397,12.008 286.155,12.138 285.816 C 12.268 285.477,12.204 285.200,11.995 285.200 C 11.786 285.200,11.512 285.612,11.385 286.116 M384.400 287.349 C 384.400 287.389,384.760 287.730,385.200 288.107 C 385.813 288.632,386.000 288.663,386.000 288.243 C 386.000 287.941,385.640 287.599,385.200 287.484 C 384.760 287.369,384.400 287.308,384.400 287.349 M384.200 288.800 C 383.952 289.202,384.255 289.360,385.000 289.219 C 385.220 289.177,385.183 289.364,384.917 289.634 C 384.535 290.023,384.284 290.008,383.717 289.563 C 383.063 289.050,383.049 289.062,383.549 289.700 C 384.500 290.913,385.884 290.405,385.359 289.036 C 385.081 288.314,384.565 288.209,384.200 288.800 M180.396 308.600 C 180.181 328.327,180.137 327.237,181.110 326.255 C 181.636 325.723,181.657 325.611,181.200 325.783 C 180.673 325.982,180.614 324.463,180.714 313.305 C 180.777 306.317,180.776 298.350,180.711 295.600 C 180.646 292.850,180.504 298.700,180.396 308.600 M219.380 308.305 C 219.398 323.881,219.328 325.982,218.800 325.783 C 218.343 325.611,218.364 325.723,218.890 326.255 C 219.863 327.238,219.821 328.323,219.580 308.600 L 219.360 290.600 219.380 308.305 M180.639 327.094 C 178.878 328.855,183.034 331.389,185.024 329.767 C 185.740 329.183,185.743 329.153,185.063 329.369 C 182.892 330.059,182.564 330.026,181.615 329.016 C 180.972 328.331,180.784 327.856,181.051 327.589 C 181.317 327.323,181.775 327.558,182.425 328.295 L 183.400 329.400 182.300 328.430 C 181.695 327.897,181.200 327.644,181.200 327.868 C 181.200 329.575,183.782 329.892,184.758 328.304 L 185.313 327.400 184.389 328.200 C 183.557 328.920,183.491 328.928,183.728 328.279 C 183.885 327.848,183.832 327.657,183.595 327.803 C 183.378 327.937,183.200 327.846,183.200 327.600 C 183.200 327.354,183.020 327.264,182.800 327.400 C 182.580 327.536,182.400 327.495,182.400 327.309 C 182.400 326.914,180.991 326.743,180.639 327.094 M217.600 327.278 C 217.600 327.481,217.420 327.536,217.200 327.400 C 216.980 327.264,216.800 327.354,216.800 327.600 C 216.800 327.846,216.622 327.937,216.405 327.803 C 216.168 327.657,216.115 327.848,216.272 328.279 C 216.509 328.928,216.443 328.920,215.611 328.200 L 214.687 327.400 215.242 328.304 C 216.218 329.892,218.800 329.575,218.800 327.868 C 218.800 327.644,218.305 327.897,217.700 328.430 L 216.600 329.400 217.575 328.295 C 218.225 327.558,218.683 327.323,218.949 327.589 C 219.216 327.856,219.028 328.331,218.385 329.016 C 217.436 330.026,217.108 330.059,214.937 329.369 C 214.257 329.153,214.260 329.183,214.976 329.767 C 216.691 331.165,219.808 329.868,219.525 327.875 C 219.402 327.013,217.600 326.454,217.600 327.278 " stroke="none" fill="#201c1c" fill-rule="evenodd"></path></g></svg>